<svg class="svg-icon" style="width: 1em; height: 1em;vertical-align: middle;fill: currentColor;overflow: hidden;" viewBox="0 0 1024 1024" version="1.1" xmlns="http://www.w3.org/2000/svg"><path d="M401.066667 482.133333h-234.666667c-38.4 0-69.333333-30.933333-69.333333-69.333333v-234.666667c0-38.4 30.933333-69.333333 69.333333-69.333333h234.666667c38.4 0 69.333333 30.933333 69.333333 69.333333v234.666667c1.066667 38.4-30.933333 69.333333-69.333333 69.333333z m-233.6-341.333333c-20.266667 0-37.333333 17.066667-37.333334 37.333333v234.666667c0 20.266667 17.066667 37.333333 37.333334 37.333333h234.666666c20.266667 0 37.333333-17.066667 37.333334-37.333333v-234.666667c0-20.266667-17.066667-37.333333-37.333334-37.333333h-234.666666zM856.533333 482.133333h-234.666666c-38.4 0-69.333333-30.933333-69.333334-69.333333v-234.666667c0-38.4 30.933333-69.333333 69.333334-69.333333h234.666666c38.4 0 69.333333 30.933333 69.333334 69.333333v234.666667c0 38.4-30.933333 69.333333-69.333334 69.333333z m-233.6-341.333333c-20.266667 0-37.333333 17.066667-37.333333 37.333333v234.666667c0 20.266667 17.066667 37.333333 37.333333 37.333333h234.666667c20.266667 0 37.333333-17.066667 37.333333-37.333333v-234.666667c0-20.266667-17.066667-37.333333-37.333333-37.333333h-234.666667zM401.066667 915.2h-234.666667c-38.4 0-69.333333-30.933333-69.333333-69.333333v-234.666667c0-38.4 30.933333-69.333333 69.333333-69.333333h234.666667c38.4 0 69.333333 30.933333 69.333333 69.333333v234.666667c1.066667 37.333333-30.933333 69.333333-69.333333 69.333333z m-233.6-341.333333c-20.266667 0-37.333333 17.066667-37.333334 37.333333v234.666667c0 20.266667 17.066667 37.333333 37.333334 37.333333h234.666666c20.266667 0 37.333333-17.066667 37.333334-37.333333v-234.666667c0-20.266667-17.066667-37.333333-37.333334-37.333333h-234.666666zM915.2 882.133333l-53.333333-52.266666c26.666667-32 40.533333-70.4 40.533333-112 0-97.066667-78.933333-174.933333-174.933333-174.933334-97.066667 0-174.933333 78.933333-174.933334 174.933334 0 97.066667 78.933333 174.933333 174.933334 174.933333 8.533333 0 16-7.466667 16-16s-7.466667-16-16-16c-78.933333 0-142.933333-64-142.933334-142.933333s64-142.933333 142.933334-142.933334 142.933333 64 142.933333 142.933334c0 38.4-14.933333 74.666667-42.666667 101.333333 0 0 0 1.066667-1.066666 1.066667-5.333333 6.4-5.333333 16 1.066666 21.333333l64 62.933333c3.2 3.2 7.466667 4.266667 11.733334 4.266667 4.266667 0 8.533333-1.066667 11.733333-4.266667 6.4-6.4 6.4-17.066667 0-22.4z" fill="#777777" /><path d="M773.333333 865.066667m-17.066666 0a17.066667 17.066667 0 1 0 34.133333 0 17.066667 17.066667 0 1 0-34.133333 0Z" fill="#777777" /></svg>